<svg xmlns="http://www.w3.org/2000/svg" viewBox="0 0 512 512" role="img" aria-label="Botafarm Grow OS">
  <defs>
    <linearGradient id="leaf" x1="156" y1="96" x2="356" y2="416" gradientUnits="userSpaceOnUse">
      <stop offset="0" stop-color="#22d3ee"/>
      <stop offset="1" stop-color="#e879f9"/>
    </linearGradient>
    <radialGradient id="glow" cx="50%" cy="42%" r="58%">
      <stop offset="0" stop-color="#22d3ee" stop-opacity="0.28"/>
      <stop offset="1" stop-color="#030304" stop-opacity="0"/>
    </radialGradient>
  </defs>
  <rect width="512" height="512" rx="112" fill="#030304"/>
  <rect width="512" height="512" rx="112" fill="url(#glow)"/>
  <path
    fill="url(#leaf)"
    d="M256 118c-72 44-118 112-118 188 0 74 52 128 118 128s118-54 118-128c0-76-46-144-118-188zm0 56c42 34 68 82 72 132-24-8-48-8-72 0 4-50 30-98 72-132z"
  />
  <path
    fill="#f4f4f5"
    fill-opacity="0.9"
    d="M252 300v74c0 8 6 14 14 14h4c8 0 14-6 14-14v-74c-18 6-28 6-32 0z"
  />
</svg>
